<svg xmlns="http://www.w3.org/2000/svg" viewBox="0 0 128 128">
  <path fill="#fff" d="M0 0h128v128H0z"/>
  <path d="M9.09 43.98v30.05h109.82V43.98H9.09Z" fill="#f9d564"/>
  <path d="M118.91 93.88v15.03h-61.5V93.88h61.5ZM9.09 100.32c0-10.06 8.15-18.21 18.21-18.21s18.21 8.15 18.21 18.21-8.15 18.21-18.21 18.21-18.21-8.15-18.21-18.21ZM62 9.09H9.09v15.03h52.9V9.09Zm56.91 0H98.54v15.03h20.37V9.09ZM41.37 61.84c0-13.06 7.8-22.1 20.29-22.1 5.09 0 9.94 2.05 12.32 5.09V9.09h12.65v73.04H74.72l-.66-5.26c-2.22 3.78-7.31 6.33-13.23 6.33-11.83 0-19.47-8.38-19.47-21.36Zm32.53-.5c0-6.16-4.11-10.27-10.02-10.27s-9.78 4.19-9.78 10.27 3.78 10.27 9.78 10.27S73.9 67.5 73.9 61.34Z" fill="#212529"/>
</svg>
